<?xml version="1.0" standalone="no"?>
<!DOCTYPE svg PUBLIC "-//W3C//DTD SVG 20010904//EN"
 "http://www.w3.org/TR/2001/REC-SVG-20010904/DTD/svg10.dtd">
<svg version="1.0" xmlns="http://www.w3.org/2000/svg"
 width="1280.000000pt" height="640.000000pt" viewBox="0 0 1280.000000 640.000000"
 preserveAspectRatio="xMidYMid meet">
<metadata>
Created by potrace 1.15, written by Peter Selinger 2001-2017
</metadata>
<g transform="translate(0.000000,640.000000) scale(0.100000,-0.100000)"
fill="#000000" stroke="none">
<path d="M7455 5851 c-110 -29 -199 -100 -247 -199 -31 -62 -33 -74 -33 -167
0 -88 3 -107 27 -157 131 -281 534 -286 670 -10 31 62 33 74 33 167 0 93 -2
105 -33 167 -61 124 -173 197 -310 204 -42 2 -90 0 -107 -5z m195 -154 c164
-84 167 -325 5 -418 -102 -58 -242 -27 -310 70 -26 37 -30 53 -34 121 -2 65 1
87 18 123 29 59 70 96 133 119 64 22 124 18 188 -15z"/>
<path d="M3380 5780 l0 -70 65 0 66 0 -3 -290 -3 -290 68 0 67 0 0 290 0 289
66 3 66 3 0 65 0 65 -196 3 -196 2 0 -70z"/>
<path d="M3860 5490 l0 -360 195 0 195 0 0 65 0 65 -125 0 -125 0 0 95 0 95
125 0 125 0 0 70 0 70 -125 0 -125 0 0 60 0 60 125 0 125 0 0 70 0 70 -195 0
-195 0 0 -360z"/>
<path d="M4591 5828 c-5 -13 -56 -147 -114 -298 -146 -382 -147 -384 -147
-392 0 -5 31 -8 69 -8 l69 0 29 73 29 72 145 3 144 3 28 -76 28 -75 70 0 c38
0 69 4 69 8 0 4 -60 165 -134 357 l-133 350 -72 3 c-66 3 -72 1 -80 -20z m169
-410 c0 -5 -40 -8 -90 -8 -49 0 -90 2 -90 4 0 6 81 220 87 229 5 8 93 -206 93
-225z"/>
<path d="M5190 5842 c0 -5 -9 -58 -19 -118 -30 -167 -101 -580 -101 -588 0 -3
29 -6 64 -6 53 0 66 3 70 18 2 9 19 106 38 215 18 108 35 197 38 197 3 0 37
-96 76 -212 l70 -213 64 0 63 0 71 212 c39 116 74 214 76 217 3 3 21 -86 39
-197 19 -111 36 -210 39 -219 4 -15 16 -18 68 -18 35 0 64 2 64 6 0 9 -110
667 -115 692 -5 20 -11 22 -69 22 l-64 0 -35 -102 c-19 -57 -57 -167 -84 -245
-26 -79 -50 -143 -53 -143 -3 0 -42 109 -86 243 l-80 242 -67 3 c-37 2 -67 -1
-67 -6z"/>
<path d="M6250 5842 c0 -10 147 -665 156 -695 5 -15 15 -17 71 -15 l66 3 62
224 c34 123 64 220 67 215 3 -5 27 -83 52 -174 26 -91 54 -189 62 -218 l16
-53 66 3 67 3 12 55 c7 30 42 185 78 344 36 158 65 294 65 302 0 11 -16 14
-65 14 -36 0 -65 -1 -65 -3 0 -11 -99 -440 -103 -443 -2 -2 -32 97 -67 221
l-63 225 -53 0 c-29 0 -56 -4 -59 -10 -3 -5 -33 -105 -65 -221 -33 -116 -61
-213 -63 -216 -3 -2 -13 31 -22 74 -9 43 -32 143 -49 223 l-33 145 -66 3 c-37
2 -67 -1 -67 -6z"/>
<path d="M8050 5491 l0 -361 70 0 70 0 0 152 c0 101 3 149 10 142 5 -5 43 -73
84 -149 l73 -140 78 -3 77 -3 -45 83 c-121 226 -123 230 -102 242 121 67 151
222 62 323 -47 54 -83 64 -239 71 l-138 5 0 -362z m271 201 c15 -13 22 -30 22
-52 0 -48 -31 -70 -99 -70 l-54 0 0 70 0 70 54 0 c37 0 61 -6 77 -18z"/>
<path d="M8627 5843 c-4 -3 -7 -165 -7 -360 l0 -353 70 0 69 0 3 156 3 155
108 -155 108 -156 80 0 c59 0 78 3 73 12 -4 6 -65 94 -135 196 -71 101 -127
187 -125 191 3 3 59 76 125 161 l121 155 -76 3 c-46 2 -81 -2 -89 -8 -8 -6
-54 -63 -102 -126 l-88 -114 -3 125 -3 125 -63 0 c-34 0 -66 -3 -69 -7z"/>
<path d="M6280 4909 c-170 -33 -338 -204 -370 -378 -33 -178 12 -333 135 -457
99 -101 206 -144 356 -144 136 0 247 46 345 144 96 95 144 213 144 351 0 142
-46 254 -145 351 -123 121 -287 168 -465 133z"/>
<path d="M4000 4632 c-156 -42 -275 -147 -332 -293 -17 -44 -21 -76 -21 -169
0 -93 4 -125 21 -169 58 -149 186 -259 343 -296 89 -21 144 -19 237 8 211 61
342 237 342 457 0 107 -39 230 -87 278 -8 8 -22 26 -30 39 -26 39 -133 109
-203 133 -88 30 -188 34 -270 12z"/>
<path d="M8560 4631 c-156 -40 -278 -150 -332 -299 -31 -84 -31 -245 0 -326
59 -154 183 -263 343 -301 89 -21 144 -19 237 8 163 48 278 161 328 326 18 59
18 203 0 262 -50 165 -176 287 -340 329 -94 24 -148 24 -236 1z"/>
<path d="M6155 3869 c-294 -104 -467 -245 -581 -472 -112 -220 -148 -413 -143
-750 l4 -207 -222 0 -223 0 0 -170 0 -170 80 0 80 0 0 -775 0 -775 155 0 155
0 0 775 0 775 150 0 150 0 -7 -27 c-11 -37 -7 -169 6 -265 16 -117 29 -222 62
-498 5 -47 14 -120 19 -162 14 -107 27 -215 41 -333 15 -120 27 -151 75 -199
48 -48 93 -66 164 -66 96 0 166 44 211 132 19 37 21 53 16 138 -4 52 -11 129
-16 170 -6 41 -15 112 -21 158 -5 45 -15 119 -20 165 -6 45 -15 118 -20 162
-5 44 -14 118 -20 165 -6 47 -13 112 -16 145 l-6 60 85 33 84 33 82 -33 81
-33 -5 -55 c-4 -30 -10 -86 -15 -125 -13 -97 -27 -213 -40 -325 -17 -146 -42
-352 -60 -488 -13 -100 3 -172 51 -226 86 -99 249 -104 343 -10 52 53 64 94
86 304 6 58 15 134 20 170 5 36 14 110 20 165 6 55 15 135 20 177 21 165 29
236 40 328 6 52 16 129 21 170 8 60 7 85 -4 123 l-15 47 154 0 154 0 0 -775 0
-775 155 0 155 0 0 775 0 775 80 0 80 0 0 170 0 170 -223 0 -223 0 7 53 c4 28
8 115 8 192 2 326 -69 606 -205 811 -119 178 -274 288 -531 375 l-114 38 -60
-61 -60 -61 -62 61 c-35 34 -65 62 -67 61 -3 -1 -54 -19 -115 -40z m255 -214
c11 -82 13 -95 50 -345 26 -172 36 -240 45 -298 8 -42 -4 -68 -62 -142 -7 -8
-20 -25 -30 -38 l-18 -23 -50 67 c-28 37 -53 73 -58 80 -6 11 -2 53 23 214 37
237 67 439 76 513 4 31 8 56 10 54 2 -1 8 -38 14 -82z m-520 -865 l0 -350 -28
0 -29 0 -13 136 c-10 109 -10 162 0 263 14 143 48 301 66 301 2 0 4 -157 4
-350z m1067 190 c18 -81 24 -431 10 -502 -7 -32 -12 -38 -32 -38 l-25 0 1 348
c0 317 2 344 15 307 8 -22 22 -74 31 -115z"/>
<path d="M3920 3656 c-140 -31 -243 -106 -307 -220 l-28 -51 -3 -604 c-3 -669
-3 -668 61 -753 37 -49 110 -102 165 -119 22 -7 138 -15 277 -18 234 -6 241
-7 290 -33 62 -32 102 -77 122 -135 17 -49 14 -217 -7 -408 -22 -207 -30 -284
-41 -436 l-13 -157 30 -58 c33 -67 82 -106 156 -126 85 -22 191 22 244 101 38
58 43 105 94 862 22 325 8 590 -34 654 -45 69 -107 110 -206 138 -52 14 -167
34 -235 40 l-30 2 -3 143 c-2 119 0 142 12 142 8 0 18 -5 21 -10 9 -15 70 -44
143 -69 93 -32 245 -51 404 -51 184 0 259 13 305 53 83 73 93 185 25 263 -51
58 -74 64 -254 64 -186 0 -271 14 -363 59 -119 59 -191 160 -285 400 -48 122
-58 139 -114 196 -117 119 -269 166 -426 131z"/>
<path d="M8648 3646 c-106 -31 -203 -98 -249 -172 -11 -18 -46 -98 -79 -180
-87 -216 -154 -305 -272 -365 -88 -45 -177 -59 -361 -59 -183 0 -207 -7 -261
-73 -22 -28 -30 -50 -34 -91 -6 -70 1 -96 35 -137 51 -60 97 -72 288 -77 254
-6 431 25 561 99 28 16 54 29 58 29 3 0 6 -65 6 -145 l0 -145 -48 0 c-68 0
-236 -38 -297 -66 -65 -31 -107 -72 -136 -131 -47 -97 -43 -461 11 -1148 23
-302 35 -347 103 -399 41 -31 109 -56 151 -56 78 2 164 54 202 124 25 46 26
52 21 170 -3 66 -11 168 -17 226 -43 401 -56 604 -41 656 18 66 63 118 128
150 57 29 60 29 293 35 129 3 249 10 265 16 107 36 182 103 215 191 19 51 20
79 20 663 l0 610 -31 60 c-17 34 -51 81 -76 105 -77 76 -230 135 -342 133 -20
0 -71 -10 -113 -23z"/>
<path d="M3279 3334 c-52 -16 -95 -54 -115 -101 -11 -26 -14 -181 -14 -840 0
-802 0 -807 21 -851 12 -24 28 -46 35 -49 12 -4 14 -86 14 -474 l0 -469 110 0
110 0 0 450 0 450 313 -2 312 -3 3 -448 2 -448 108 3 107 3 3 447 c2 358 5
448 15 448 23 0 95 53 108 79 20 44 27 100 17 146 -11 53 -67 108 -125 124
-21 6 -133 11 -254 11 -192 0 -223 2 -279 21 -117 38 -197 114 -237 224 -16
45 -18 102 -23 610 -4 456 -8 565 -19 585 -41 72 -132 109 -212 84z"/>
<path d="M9417 3335 c-51 -13 -89 -43 -115 -90 -15 -27 -17 -86 -19 -540 -1
-280 -4 -537 -7 -569 -10 -104 -72 -207 -157 -262 -85 -54 -145 -64 -371 -64
-244 0 -285 -7 -338 -60 -48 -48 -63 -104 -46 -171 16 -59 43 -91 102 -119
l44 -20 0 -445 0 -445 105 0 105 0 0 450 0 450 315 0 315 0 2 -447 3 -448 108
-3 107 -3 0 463 0 463 25 27 c14 15 30 39 35 53 6 17 10 330 10 843 l0 817
-23 39 c-39 69 -119 102 -200 81z"/>
</g>
</svg>
